<svg xmlns="http://www.w3.org/2000/svg" xmlns:xlink="http://www.w3.org/1999/xlink" width="145" height="145" viewBox="0 0 145 145"><defs><path id="inq9a" d="M888 145V0h145v145z"/><path id="inq9b" d="M996.58 104.54h-13.07l-2.61-7.5c2.72-.78 4.44-3.1 4.44-6.19v-5.38c0-3.82-2.63-6.46-6.43-6.46H962.3v25.53h-37.88V38.45h72.16zm-17.76-14.87c0 1-.54 1.55-1.54 1.55h-8.46V85.2h8.46c1 0 1.54.54 1.54 1.54zM918 110.98l50.82.02V97.31h5.25l5.25 13.69 23.68-.02V32h-85z"/></defs><g><g transform="translate(-888)"><g><use xlink:href="#inq9a"/></g><g><use fill="#fff" xlink:href="#inq9b"/></g></g></g></svg>